<svg width="31" height="30" viewBox="0 0 31 30" fill="none" xmlns="http://www.w3.org/2000/svg">
<g id="fluent:emoji-28-regular">
<path id="Vector" d="M19.5837 13.9283C20.0099 13.9283 20.4187 13.759 20.7201 13.4576C21.0215 13.1562 21.1908 12.7474 21.1908 12.3211C21.1908 11.8949 21.0215 11.4861 20.7201 11.1847C20.4187 10.8833 20.0099 10.714 19.5837 10.714C19.1575 10.714 18.7487 10.8833 18.4473 11.1847C18.1459 11.4861 17.9766 11.8949 17.9766 12.3211C17.9766 12.7474 18.1459 13.1562 18.4473 13.4576C18.7487 13.759 19.1575 13.9283 19.5837 13.9283ZM13.6908 12.3211C13.6908 12.7474 13.5215 13.1562 13.2201 13.4576C12.9187 13.759 12.5099 13.9283 12.0837 13.9283C11.6575 13.9283 11.2487 13.759 10.9473 13.4576C10.6459 13.1562 10.4766 12.7474 10.4766 12.3211C10.4766 11.8949 10.6459 11.4861 10.9473 11.1847C11.2487 10.8833 11.6575 10.714 12.0837 10.714C12.5099 10.714 12.9187 10.8833 13.2201 11.1847C13.5215 11.4861 13.6908 11.8949 13.6908 12.3211ZM9.75656 18.3533C9.93219 18.2337 10.148 18.1886 10.3568 18.2278C10.5656 18.2669 10.7505 18.3872 10.8708 18.5622L10.8805 18.5751L10.9276 18.6383C10.9726 18.6961 11.0455 18.784 11.1451 18.8933C11.3455 19.1108 11.6508 19.4076 12.0644 19.7044C12.8873 20.2969 14.1323 20.8926 15.8337 20.8926C17.5351 20.8926 18.7801 20.2969 19.603 19.7044C20.0166 19.4076 20.323 19.1108 20.5223 18.8933C20.6159 18.7916 20.7046 18.6854 20.788 18.5751L20.7955 18.5644C20.9155 18.3882 21.1007 18.2669 21.3101 18.2272C21.5196 18.1875 21.7363 18.2327 21.9125 18.3528C22.0886 18.4728 22.2099 18.6579 22.2496 18.8674C22.2893 19.0769 22.2441 19.2935 22.1241 19.4697L22.1219 19.4708V19.4729L22.1187 19.4761L22.1112 19.4869L22.0876 19.5201L22.0062 19.6272C21.9105 19.7483 21.8104 19.8659 21.7062 19.9797C21.3547 20.362 20.9643 20.7067 20.5416 21.0083C19.5023 21.7572 17.9358 22.4997 15.8337 22.4997C13.7316 22.4997 12.1651 21.7561 11.1258 21.0094C10.7026 20.7071 10.3119 20.3617 9.96013 19.9786C9.81785 19.8218 9.6834 19.658 9.55728 19.4879L9.54871 19.4772L9.54656 19.4729L9.54549 19.4708L9.54442 19.4697C9.42451 19.2935 9.37949 19.0769 9.41928 18.8676C9.45906 18.6582 9.58039 18.4732 9.75656 18.3533ZM15.8337 2.14258C8.73335 2.14258 2.97656 7.89936 2.97656 14.9997C2.97656 22.1001 8.73335 27.8569 15.8337 27.8569C22.9341 27.8569 28.6908 22.1001 28.6908 14.9997C28.6908 7.89936 22.9341 2.14258 15.8337 2.14258ZM4.58371 14.9997C4.58371 8.78651 9.62049 3.74972 15.8337 3.74972C22.0469 3.74972 27.0837 8.78651 27.0837 14.9997C27.0837 21.2129 22.0469 26.2497 15.8337 26.2497C9.62049 26.2497 4.58371 21.2129 4.58371 14.9997Z" fill="#FF0057"/>
</g>
</svg>
